<?xml version="1.0" encoding="UTF-8"?>
<svg xmlns="http://www.w3.org/2000/svg" viewBox="0 0 1920 1080" preserveAspectRatio="xMidYMid slice">
  <defs>
    <radialGradient id="g1" cx="30%" cy="40%" r="80%">
      <stop offset="0%" stop-color="#0d7a4d"/>
      <stop offset="55%" stop-color="#053a23"/>
      <stop offset="100%" stop-color="#020e09"/>
    </radialGradient>
    <linearGradient id="g1b" x1="0" y1="0" x2="1" y2="1">
      <stop offset="0%" stop-color="rgba(13,122,77,.55)"/>
      <stop offset="100%" stop-color="rgba(8,40,25,.05)"/>
    </linearGradient>
    <filter id="b1" x="-20%" y="-20%" width="140%" height="140%">
      <feGaussianBlur stdDeviation="38"/>
    </filter>
  </defs>
  <rect width="1920" height="1080" fill="url(#g1)"/>
  <!-- DNA double helix -->
  <g transform="translate(1280 540)" stroke="rgba(255,255,255,.75)" stroke-width="3" fill="none" stroke-linecap="round">
    <path d="M -300 -400 Q -100 -300 -300 -200 T -300 0 T -300 200 T -300 400" opacity=".6"/>
    <path d="M 300 -400 Q 100 -300 300 -200 T 300 0 T 300 200 T 300 400" opacity=".6"/>
    <g stroke-width="2" opacity=".55">
      <line x1="-292" y1="-380" x2="292" y2="-380"/>
      <line x1="-275" y1="-340" x2="275" y2="-340"/>
      <line x1="-255" y1="-290" x2="255" y2="-290"/>
      <line x1="-235" y1="-235" x2="235" y2="-235"/>
      <line x1="-215" y1="-185" x2="215" y2="-185"/>
      <line x1="-195" y1="-130" x2="195" y2="-130"/>
      <line x1="-178" y1="-70" x2="178" y2="-70"/>
      <line x1="-170" y1="-20" x2="170" y2="-20"/>
      <line x1="-175" y1="40" x2="175" y2="40"/>
      <line x1="-195" y1="100" x2="195" y2="100"/>
      <line x1="-215" y1="160" x2="215" y2="160"/>
      <line x1="-240" y1="220" x2="240" y2="220"/>
      <line x1="-265" y1="270" x2="265" y2="270"/>
      <line x1="-285" y1="330" x2="285" y2="330"/>
      <line x1="-295" y1="380" x2="295" y2="380"/>
    </g>
    <g fill="rgba(255,255,255,.9)" stroke="none">
      <circle cx="-292" cy="-380" r="6"/>
      <circle cx="292" cy="-380" r="6"/>
      <circle cx="-178" cy="-70" r="7"/>
      <circle cx="178" cy="-70" r="7"/>
      <circle cx="-170" cy="-20" r="8"/>
      <circle cx="170" cy="-20" r="8"/>
      <circle cx="-295" cy="380" r="6"/>
      <circle cx="295" cy="380" r="6"/>
    </g>
  </g>
  <!-- Glow particles -->
  <g fill="rgba(255,255,255,.85)" filter="url(#b1)">
    <circle cx="420" cy="220" r="48"/>
    <circle cx="220" cy="780" r="36"/>
    <circle cx="900" cy="180" r="28"/>
    <circle cx="1700" cy="900" r="44"/>
  </g>
  <rect width="1920" height="1080" fill="url(#g1b)" opacity=".4"/>
</svg>
