<svg xmlns="http://www.w3.org/2000/svg" viewBox="0 0 1920 1080" preserveAspectRatio="xMidYMid slice">
  <defs>
    <linearGradient id="g4" x1="0" y1="0" x2="1" y2="0">
      <stop offset="0%" stop-color="#0a0e14"/>
      <stop offset="100%" stop-color="#134e4a"/>
    </linearGradient>
    <radialGradient id="glow4" cx="20%" cy="60%" r="50%">
      <stop offset="0%" stop-color="#14b8a6" stop-opacity="0.35"/>
      <stop offset="100%" stop-color="#14b8a6" stop-opacity="0"/>
    </radialGradient>
  </defs>
  <rect width="1920" height="1080" fill="url(#g4)"/>
  <rect width="1920" height="1080" fill="url(#glow4)"/>
  <!-- Microscopic cell pattern -->
  <g fill="none" stroke="#2dd4bf" stroke-width="2" opacity="0.5">
    <circle cx="380" cy="400" r="120"/>
    <circle cx="380" cy="400" r="60"/>
    <circle cx="380" cy="400" r="28" fill="#2dd4bf" opacity="0.4"/>
    <circle cx="700" cy="700" r="140"/>
    <circle cx="700" cy="700" r="80"/>
    <circle cx="700" cy="700" r="40" fill="#2dd4bf" opacity="0.4"/>
    <circle cx="1200" cy="350" r="100"/>
    <circle cx="1200" cy="350" r="50"/>
    <circle cx="1200" cy="350" r="22" fill="#2dd4bf" opacity="0.4"/>
    <circle cx="1500" cy="620" r="130"/>
    <circle cx="1500" cy="620" r="70"/>
    <circle cx="1500" cy="620" r="32" fill="#2dd4bf" opacity="0.4"/>
  </g>
  <!-- Smaller floating cells -->
  <g fill="#5eead4" opacity="0.25">
    <circle cx="900" cy="180" r="14"/>
    <circle cx="1700" cy="300" r="18"/>
    <circle cx="200" cy="800" r="16"/>
    <circle cx="1050" cy="900" r="12"/>
    <circle cx="1800" cy="850" r="16"/>
  </g>
</svg>
