<svg xmlns="http://www.w3.org/2000/svg" viewBox="0 0 1920 1080" preserveAspectRatio="xMidYMid slice">
  <defs>
    <linearGradient id="g1" x1="0" y1="0" x2="1" y2="1">
      <stop offset="0%" stop-color="#0a1929"/>
      <stop offset="50%" stop-color="#0f3744"/>
      <stop offset="100%" stop-color="#0d9488"/>
    </linearGradient>
    <radialGradient id="glow1" cx="30%" cy="40%" r="60%">
      <stop offset="0%" stop-color="#14b8a6" stop-opacity="0.45"/>
      <stop offset="60%" stop-color="#14b8a6" stop-opacity="0.05"/>
      <stop offset="100%" stop-color="#14b8a6" stop-opacity="0"/>
    </radialGradient>
  </defs>
  <rect width="1920" height="1080" fill="url(#g1)"/>
  <rect width="1920" height="1080" fill="url(#glow1)"/>
  <!-- Heartbeat ECG line -->
  <g stroke="#2dd4bf" stroke-width="3" fill="none" opacity="0.7">
    <path d="M0 540 L300 540 L340 540 L360 460 L380 620 L400 360 L420 700 L460 540 L760 540 L800 540 L820 460 L840 620 L860 360 L880 700 L920 540 L1220 540 L1260 540 L1280 460 L1300 620 L1320 360 L1340 700 L1380 540 L1920 540"/>
  </g>
  <!-- Soft particle dots -->
  <g fill="#5eead4" opacity="0.4">
    <circle cx="200" cy="200" r="3"/>
    <circle cx="450" cy="320" r="2"/>
    <circle cx="780" cy="180" r="3"/>
    <circle cx="1100" cy="240" r="2"/>
    <circle cx="1400" cy="160" r="3"/>
    <circle cx="1700" cy="280" r="2"/>
    <circle cx="320" cy="780" r="3"/>
    <circle cx="650" cy="850" r="2"/>
    <circle cx="980" cy="820" r="3"/>
    <circle cx="1280" cy="900" r="2"/>
    <circle cx="1600" cy="780" r="3"/>
  </g>
</svg>
