<svg xmlns="http://www.w3.org/2000/svg" viewBox="0 0 1920 1080" preserveAspectRatio="xMidYMid slice">
  <defs>
    <linearGradient id="g2" x1="0" y1="0" x2="1" y2="1">
      <stop offset="0%" stop-color="#0a0e14"/>
      <stop offset="60%" stop-color="#1a2030"/>
      <stop offset="100%" stop-color="#0e7490"/>
    </linearGradient>
    <radialGradient id="glow2" cx="70%" cy="50%" r="50%">
      <stop offset="0%" stop-color="#3b82f6" stop-opacity="0.35"/>
      <stop offset="100%" stop-color="#3b82f6" stop-opacity="0"/>
    </radialGradient>
  </defs>
  <rect width="1920" height="1080" fill="url(#g2)"/>
  <rect width="1920" height="1080" fill="url(#glow2)"/>
  <!-- DNA helix (stylized) -->
  <g stroke="#14b8a6" stroke-width="3" fill="none" opacity="0.55">
    <path d="M1200 100 Q1400 270 1200 440 Q1000 610 1200 780 Q1400 950 1200 1080"/>
    <path d="M1400 100 Q1200 270 1400 440 Q1600 610 1400 780 Q1200 950 1400 1080"/>
  </g>
  <g stroke="#5eead4" stroke-width="2" opacity="0.4">
    <line x1="1220" y1="160" x2="1380" y2="160"/>
    <line x1="1180" y1="240" x2="1420" y2="240"/>
    <line x1="1200" y1="320" x2="1400" y2="320"/>
    <line x1="1220" y1="400" x2="1380" y2="400"/>
    <line x1="1180" y1="480" x2="1420" y2="480"/>
    <line x1="1200" y1="560" x2="1400" y2="560"/>
    <line x1="1220" y1="640" x2="1380" y2="640"/>
    <line x1="1180" y1="720" x2="1420" y2="720"/>
    <line x1="1200" y1="800" x2="1400" y2="800"/>
    <line x1="1220" y1="880" x2="1380" y2="880"/>
  </g>
  <!-- Network nodes -->
  <g fill="#2dd4bf" opacity="0.35">
    <circle cx="200" cy="300" r="6"/>
    <circle cx="380" cy="500" r="4"/>
    <circle cx="540" cy="280" r="6"/>
    <circle cx="700" cy="600" r="4"/>
    <circle cx="850" cy="380" r="6"/>
  </g>
  <g stroke="#14b8a6" stroke-width="1" opacity="0.25" fill="none">
    <path d="M200 300 L380 500 L540 280 L700 600 L850 380"/>
  </g>
</svg>
